<svg width="25" height="26" viewBox="0 0 25 26" fill="none" xmlns="http://www.w3.org/2000/svg">
<path d="M20.8385 6.74479H19.7969V8.82812H20.8385V17.1615H19.7969V19.2448H20.8385C21.9875 19.2448 22.9219 18.3104 22.9219 17.1615V8.82812C22.9219 7.68021 21.9864 6.74479 20.8385 6.74479ZM6.25519 10.9115H15.625V15.0781H6.25519V10.9115Z" fill="#C9CED6"/>
<path d="M17.7136 19.2448V4.66667H20.8334V2.58334H12.5V4.66667H15.6302V6.74479H4.1719C3.02294 6.74479 2.08856 7.67917 2.08856 8.82813V17.1615C2.08856 18.3104 3.02294 19.2448 4.1719 19.2448H15.6302V21.3333H12.5V23.4167H20.8334V21.3333H17.7136V19.2448ZM4.1719 17.1615V8.82813H15.6302V17.1615H4.1719Z" fill="#C9CED6"/>
</svg>
