<svg width="45" height="45" viewBox="0 0 45 45" fill="none" xmlns="http://www.w3.org/2000/svg">
<path d="M22.59 37.8C14.13 37.8 7.29001 30.96 7.29001 22.5C7.29001 14.04 14.13 7.20001 22.59 7.20001C31.05 7.20001 37.89 14.04 37.89 22.5C37.89 30.96 30.96 37.8 22.59 37.8ZM22.59 9.00001C15.12 9.00001 9.09001 15.03 9.09001 22.5C9.09001 29.97 15.12 36 22.59 36C30.06 36 36.09 29.97 36.09 22.5C36.09 15.03 29.97 9.00001 22.59 9.00001Z" fill="white"/>
<path d="M13.77 33.57L12.15 32.85C12.6 31.77 14.04 31.14 15.57 30.42C17.1 29.7 18.99 28.89 18.99 27.9V26.55C18.45 26.1 17.55 25.11 17.37 23.67C16.92 23.22 16.2 22.41 16.2 21.33C16.2 20.7 16.47 20.16 16.65 19.8C16.47 19.08 16.29 17.73 16.29 16.65C16.29 13.14 18.72 10.8 22.59 10.8C23.67 10.8 25.02 11.07 25.74 11.88C27.45 12.24 28.89 14.22 28.89 16.65C28.89 18.18 28.62 19.44 28.44 20.07C28.62 20.34 28.8 20.79 28.8 21.33C28.8 22.5 28.17 23.31 27.63 23.67C27.45 25.11 26.64 26.01 26.1 26.46V27.9C26.1 28.71 27.72 29.34 29.16 29.88C30.87 30.51 32.67 31.23 33.3 32.67L31.59 33.3C31.32 32.58 29.88 32.04 28.53 31.59C26.55 30.87 24.3 30.06 24.3 27.99V25.65L24.75 25.38C24.75 25.38 25.83 24.66 25.83 23.22V22.59L26.37 22.32C26.46 22.32 26.91 22.05 26.91 21.33C26.91 21.15 26.73 20.88 26.64 20.79L26.28 20.43L26.46 19.98C26.46 19.98 26.91 18.54 26.91 16.74C26.91 15.03 25.92 13.77 25.11 13.77H24.57L24.3 13.32C24.3 12.96 23.67 12.6 22.59 12.6C19.8 12.6 18.09 14.13 18.09 16.65C18.09 17.82 18.54 19.8 18.54 19.8L18.63 20.25L18.27 20.7C18.18 20.7 18 20.97 18 21.33C18 21.78 18.54 22.32 18.81 22.5L19.17 22.77V23.22C19.17 24.57 20.34 25.29 20.34 25.38L20.79 25.65V27.99C20.79 30.15 18.45 31.23 16.29 32.13C15.3 32.49 13.95 33.12 13.77 33.57Z" fill="white"/>
</svg>
