<svg width="14" height="15" viewBox="0 0 14 15" fill="none" xmlns="http://www.w3.org/2000/svg">
<path d="M1.24882 1.99876C1.17737 2.07019 1.13393 2.16489 1.1264 2.26564C1.11886 2.36639 1.14773 2.4665 1.20776 2.54776L1.24882 2.59501L3.51795 4.8647C2.41153 5.64018 1.62169 6.78848 1.29326 8.09908C1.26793 8.20697 1.28608 8.32049 1.34377 8.41511C1.40147 8.50973 1.49408 8.57785 1.60159 8.60474C1.70909 8.63164 1.82287 8.61515 1.91832 8.55884C2.01377 8.50254 2.08323 8.41093 2.1117 8.30383C2.40358 7.14058 3.12245 6.12973 4.12545 5.4722L5.14357 6.49033C4.73688 6.91529 4.51278 7.48262 4.51927 8.0708C4.52575 8.65897 4.76231 9.22122 5.17828 9.63711C5.59424 10.053 6.15653 10.2895 6.74471 10.2958C7.33289 10.3022 7.90018 10.078 8.32507 9.67126L11.6545 13.0013C11.7298 13.0767 11.8308 13.1209 11.9374 13.1249C12.0439 13.1289 12.148 13.0925 12.2287 13.0229C12.3095 12.9532 12.3609 12.8556 12.3726 12.7497C12.3843 12.6437 12.3554 12.5373 12.2918 12.4517L12.2508 12.4045L8.8122 8.96533L8.81276 8.9642L4.90338 5.05708L4.90451 5.05595L4.2672 4.42033L1.84507 1.99876C1.76597 1.91976 1.65874 1.87539 1.54695 1.87539C1.43515 1.87539 1.32792 1.91976 1.24882 1.99876ZM6.75007 3.84376C6.18757 3.84376 5.64195 3.92701 5.12501 4.08283L5.82082 4.77808C7.02432 4.53978 8.27337 4.77306 9.30972 5.42969C10.3461 6.08632 11.0905 7.11609 11.389 8.30608C11.4182 8.41235 11.4877 8.503 11.5828 8.55865C11.678 8.61429 11.7911 8.63051 11.898 8.60383C12.0049 8.57716 12.0971 8.50971 12.155 8.41591C12.2128 8.3221 12.2316 8.2094 12.2074 8.10189C11.9024 6.88546 11.1998 5.8058 10.211 5.03434C9.22228 4.26288 8.00416 3.84384 6.75007 3.84376ZM6.85976 5.81814L8.99782 7.95564C8.97016 7.39758 8.73601 6.86974 8.34087 6.4747C7.94573 6.07966 7.41782 5.84565 6.85976 5.81814Z" fill="white"/>
</svg>
