<svg width="20" height="19" viewBox="0 0 20 19" fill="none" xmlns="http://www.w3.org/2000/svg">
<path d="M13.5547 9.96875C13.7891 9.73438 13.7891 9.30469 13.5547 9.07031L8.55469 4.07031C8.32031 3.83594 7.89062 3.83594 7.65625 4.07031C7.42188 4.30469 7.42188 4.73438 7.65625 4.96875L11.6016 8.875H0.625C0.273438 8.875 0 9.1875 0 9.5C0 9.85156 0.273438 10.125 0.625 10.125H11.6016L7.65625 14.0703C7.42188 14.3047 7.42188 14.7344 7.65625 14.9688C7.89062 15.2031 8.32031 15.2031 8.55469 14.9688L13.5547 9.96875ZM13.125 17C12.7734 17 12.5 17.3125 12.5 17.625C12.5 17.9766 12.7734 18.25 13.125 18.25H16.875C18.5938 18.25 20 16.8828 20 15.125V3.875C20 2.15625 18.5938 0.75 16.875 0.75H13.125C12.7734 0.75 12.5 1.0625 12.5 1.375C12.5 1.72656 12.7734 2 13.125 2H16.875C17.8906 2 18.75 2.85938 18.75 3.875V15.125C18.75 16.1797 17.8906 17 16.875 17H13.125Z" fill="#C9CED6"/>
</svg>
