<svg width="60" height="60" viewBox="0 0 60 60" fill="none" xmlns="http://www.w3.org/2000/svg">
<path d="M27.8751 11.7V21.4C27.8726 22.6099 27.5117 23.792 26.8381 24.7971C26.1645 25.8022 25.2083 26.5853 24.0901 27.0475C23.3482 27.3533 22.5525 27.5072 21.7501 27.5H12.0751C10.4616 27.4934 8.91649 26.8478 7.77792 25.7045C6.63935 24.5613 6.0001 23.0135 6.00012 21.4V11.725C6.0001 10.1115 6.63935 8.56372 7.77792 7.42046C8.91649 6.27721 10.4616 5.63161 12.0751 5.625H21.7501C23.3671 5.6349 24.9174 6.27112 26.0751 7.4C27.2161 8.5416 27.8626 10.086 27.8751 11.7ZM54.7501 11.725V21.4C54.747 23.011 54.1092 24.5559 52.9751 25.7C52.4164 26.274 51.7476 26.7293 51.0087 27.0386C50.2698 27.3479 49.4761 27.5049 48.6751 27.5H39.0751C37.4581 27.4901 35.9079 26.8539 34.7501 25.725C34.1844 25.1562 33.7364 24.4814 33.4318 23.7393C33.1273 22.9971 32.9721 22.2022 32.9751 21.4V11.725C32.9731 10.9244 33.1313 10.1315 33.4404 9.39305C33.7496 8.65456 34.2034 7.9854 34.7751 7.425C35.3372 6.85552 36.0067 6.4032 36.7448 6.09423C37.4829 5.78526 38.275 5.62577 39.0751 5.625H48.7501C50.3639 5.63807 51.9079 6.28494 53.049 7.42609C54.1902 8.56724 54.837 10.1112 54.8501 11.725H54.7501ZM27.8751 38.625V48.3C27.8718 49.1011 27.7108 49.8936 27.4012 50.6325C27.0916 51.3713 26.6396 52.0419 26.0708 52.606C25.502 53.1702 24.8277 53.6167 24.0864 53.9202C23.3451 54.2238 22.5512 54.3783 21.7501 54.375H12.0751C10.4641 54.3718 8.91924 53.7341 7.77512 52.6C7.2079 52.0375 6.75872 51.3674 6.45392 50.629C6.14912 49.8906 5.99484 49.0988 6.00012 48.3V38.625C5.99484 37.8262 6.14912 37.0344 6.45392 36.296C6.75872 35.5576 7.2079 34.8875 7.77512 34.325C8.91264 33.1748 10.4575 32.5191 12.0751 32.5H21.7501C23.3725 32.5066 24.9266 33.154 26.0739 34.3012C27.2211 35.4485 27.8685 37.0026 27.8751 38.625ZM54.5751 43.475C54.5686 43.9703 54.369 44.4434 54.0188 44.7937C53.6685 45.1439 53.1954 45.3435 52.7001 45.35H45.6501V52.35C45.6501 52.8473 45.4526 53.3242 45.1009 53.6758C44.7493 54.0275 44.2724 54.225 43.7751 54.225C43.2778 54.225 42.8009 54.0275 42.4493 53.6758C42.0977 53.3242 41.9001 52.8473 41.9001 52.35V45.35H34.9001C34.4028 45.35 33.9259 45.1525 33.5743 44.8008C33.2227 44.4492 33.0251 43.9723 33.0251 43.475C33.0251 42.9777 33.2227 42.5008 33.5743 42.1492C33.9259 41.7975 34.4028 41.6 34.9001 41.6H41.9001V34.55C41.9001 34.0527 42.0977 33.5758 42.4493 33.2242C42.8009 32.8725 43.2778 32.675 43.7751 32.675C44.2724 32.675 44.7493 32.8725 45.1009 33.2242C45.4526 33.5758 45.6501 34.0527 45.6501 34.55V41.6H52.7001C53.1974 41.6 53.6743 41.7975 54.0259 42.1492C54.3776 42.5008 54.5751 42.9777 54.5751 43.475Z" fill="white"/>
</svg>
